<?xml version="1.0" standalone="no"?>
<!DOCTYPE svg PUBLIC "-//W3C//DTD SVG 20010904//EN"
 "http://www.w3.org/TR/2001/REC-SVG-20010904/DTD/svg10.dtd">
<svg version="1.0" xmlns="http://www.w3.org/2000/svg"
 width="477.000000pt" height="523.000000pt" viewBox="0 0 477.000000 523.000000"
 preserveAspectRatio="xMidYMid meet">

<g transform="translate(0.000000,523.000000) scale(0.100000,-0.100000)"
fill="#000000" stroke="none">
<path d="M2126 4484 c-25 -25 -14 -86 13 -70 7 4 9 1 5 -8 -3 -8 2 -17 14 -20
10 -4 29 -17 42 -31 20 -21 22 -28 12 -50 -13 -29 -6 -32 26 -9 38 27 29 67
-23 105 -43 31 -62 60 -57 87 4 17 -13 15 -32 -4z"/>
<path d="M2318 4390 l-3 -110 33 0 c19 0 31 4 27 10 -3 5 -6 54 -6 110 0 99 0
100 -24 100 -23 0 -24 -2 -27 -110z"/>
<path d="M2441 4483 c7 -10 15 -20 16 -22 2 -2 3 5 3 17 0 14 -6 22 -16 22
-14 0 -15 -3 -3 -17z"/>
<path d="M2519 4468 c-23 -26 -29 -42 -29 -76 0 -37 6 -50 34 -78 41 -41 66
-46 41 -8 -12 19 -16 42 -13 92 2 37 8 75 12 85 13 29 -12 20 -45 -15z"/>
<path d="M2672 4465 c0 -16 2 -22 5 -12 2 9 2 23 0 30 -3 6 -5 -1 -5 -18z"/>
<path d="M2406 4402 c-2 -4 -1 -14 5 -22 7 -12 9 -10 9 8 0 23 -5 28 -14 14z"/>
<path d="M1847 4356 c-8 -19 18 -40 35 -29 7 4 14 16 14 26 2 21 -41 24 -49 3z"/>
<path d="M2672 4320 c0 -19 2 -27 5 -17 2 9 2 25 0 35 -3 9 -5 1 -5 -18z"/>
<path d="M2110 4309 c0 -11 4 -18 10 -14 5 3 7 12 3 20 -7 21 -13 19 -13 -6z"/>
<path d="M1687 4290 c-6 -25 7 -42 26 -34 23 8 21 41 -2 47 -13 3 -21 -1 -24
-13z"/>
<path d="M3450 4246 c0 -2 8 -10 18 -17 15 -13 16 -12 3 4 -13 16 -21 21 -21
13z"/>
<path d="M1538 4212 c-7 -26 19 -47 37 -32 8 7 15 21 15 31 0 25 -46 26 -52 1z"/>
<path d="M3504 4202 c8 -13 66 -56 66 -49 0 3 -17 17 -37 33 -20 15 -33 23
-29 16z"/>
<path d="M1397 4129 c-6 -24 21 -41 44 -28 24 12 13 44 -16 45 -15 1 -25 -5
-28 -17z"/>
<path d="M3585 4130 c3 -5 8 -10 11 -10 2 0 4 5 4 10 0 6 -5 10 -11 10 -5 0
-7 -4 -4 -10z"/>
<path d="M3610 4116 c0 -2 8 -10 18 -17 15 -13 16 -12 3 4 -13 16 -21 21 -21
13z"/>
<path d="M1267 4030 c-3 -13 0 -20 9 -20 8 0 14 -5 14 -10 0 -6 7 -6 19 1 25
16 16 49 -14 49 -14 0 -25 -7 -28 -20z"/>
<path d="M3130 4006 c0 -2 7 -7 16 -10 8 -3 12 -2 9 4 -6 10 -25 14 -25 6z"/>
<path d="M3730 3996 c0 -2 8 -10 18 -17 15 -13 16 -12 3 4 -13 16 -21 21 -21
13z"/>
<path d="M3180 3977 c0 -3 12 -12 26 -22 15 -9 23 -12 20 -6 -7 11 -46 35 -46
28z"/>
<path d="M1150 3926 c0 -10 8 -24 17 -31 14 -11 19 -10 29 3 17 24 6 50 -22
48 -16 -1 -24 -7 -24 -20z"/>
<path d="M3240 3936 c0 -2 8 -10 18 -17 15 -13 16 -12 3 4 -13 16 -21 21 -21
13z"/>
<path d="M3280 3906 c0 -2 21 -20 48 -41 l47 -37 -43 41 c-41 38 -52 46 -52
37z"/>
<path d="M3860 3836 c0 -2 8 -10 18 -17 15 -13 16 -12 3 4 -13 16 -21 21 -21
13z"/>
<path d="M1040 3805 c0 -27 26 -40 45 -22 9 10 10 17 1 28 -18 23 -46 20 -46
-6z"/>
<path d="M3396 3805 c4 -8 11 -15 16 -15 6 0 5 6 -2 15 -7 8 -14 15 -16 15 -2
0 -1 -7 2 -15z"/>
<path d="M3420 3776 c0 -3 9 -10 20 -16 11 -6 20 -8 20 -6 0 3 -9 10 -20 16
-11 6 -20 8 -20 6z"/>
<path d="M3470 3735 c0 -3 23 -33 50 -66 28 -33 50 -57 50 -53 0 3 -22 33 -50
66 -27 33 -50 57 -50 53z"/>
<path d="M2980 3720 c0 -6 1 -11 2 -12 1 -2 -4 -14 -11 -27 -7 -13 -9 -21 -3
-17 14 8 12 -47 -2 -56 -8 -6 -7 -10 3 -17 11 -7 11 -9 0 -14 -12 -5 -12 -7 0
-15 9 -6 10 -12 3 -16 -7 -4 -9 -22 -6 -44 10 -64 11 -142 2 -142 -4 0 -8 -7
-8 -16 0 -8 3 -13 8 -11 4 3 7 -52 7 -121 0 -110 2 -127 17 -130 24 -5 36 49
30 133 -2 39 -6 165 -8 280 -2 116 -3 213 -4 216 0 11 -30 19 -30 9z"/>
<path d="M965 3700 c-4 -6 -11 -8 -16 -5 -5 4 -9 -5 -9 -18 0 -16 7 -26 20
-30 28 -7 44 16 30 42 -12 24 -16 25 -25 11z"/>
<path d="M2250 3646 c-126 -28 -211 -122 -210 -235 1 -25 7 -59 15 -76 l13
-30 1 45 c1 67 5 83 30 119 20 27 21 35 10 42 -11 7 -11 9 2 9 9 0 22 6 28 13
6 8 31 24 56 37 24 12 42 26 40 30 -11 17 208 30 270 16 l30 -7 -25 15 c-28
16 -128 36 -174 35 -17 0 -56 -6 -86 -13z"/>
<path d="M3590 3581 c0 -6 4 -13 10 -16 6 -3 7 1 4 9 -7 18 -14 21 -14 7z"/>
<path d="M873 3563 c-21 -8 -15 -50 7 -56 13 -3 20 0 20 8 0 7 5 15 11 17 6 2
3 10 -8 19 -10 9 -24 14 -30 12z"/>
<path d="M799 3413 c-11 -3 -15 -11 -12 -23 6 -22 43 -35 43 -15 0 7 6 15 12
17 18 6 -23 25 -43 21z"/>
<path d="M2075 3290 c3 -5 8 -10 11 -10 2 0 4 5 4 10 0 6 -5 10 -11 10 -5 0
-7 -4 -4 -10z"/>
<path d="M750 3270 c0 -5 -6 -10 -14 -10 -9 0 -12 -7 -9 -20 3 -13 14 -20 28
-20 30 0 39 33 14 49 -12 7 -19 7 -19 1z"/>
<path d="M693 3102 c-8 -5 -8 -12 2 -25 12 -16 14 -17 29 -2 25 26 1 47 -31
27z"/>
<path d="M666 2944 c-3 -9 -2 -22 2 -30 7 -12 11 -12 27 0 16 12 17 16 6 30
-17 20 -27 20 -35 0z"/>
<path d="M1051 2914 c0 -11 3 -14 6 -6 3 7 2 16 -1 19 -3 4 -6 -2 -5 -13z"/>
<path d="M1783 2830 c-2 -18 0 -18 13 -6 17 18 18 26 1 26 -7 0 -13 -9 -14
-20z"/>
<path d="M1779 2790 c-3 -8 -6 -55 -7 -105 0 -88 0 -89 9 -35 10 57 8 167 -2
140z"/>
<path d="M652 2783 c-10 -4 -10 -8 -1 -19 17 -20 35 -17 35 6 0 20 -9 23 -34
13z"/>
<path d="M2925 2777 c-4 -9 -5 -26 -2 -37 3 -11 1 -20 -4 -20 -5 0 -9 5 -9 12
0 6 -3 8 -7 5 -3 -4 11 -25 33 -47 21 -22 44 -45 49 -52 11 -14 55 -105 55
-113 0 -3 8 -20 17 -38 15 -26 18 -57 18 -177 -1 -125 -4 -154 -23 -209 -24
-67 -82 -160 -126 -200 -29 -27 -36 -51 -8 -30 15 13 16 12 4 -3 -8 -9 -19
-15 -27 -12 -7 3 -16 1 -20 -5 -3 -6 0 -11 7 -11 13 0 -35 -42 -77 -67 -117
-71 -244 -106 -390 -107 -116 -1 -206 15 -319 56 -193 71 -194 71 -242 48 -51
-25 -114 -114 -88 -124 15 -6 71 41 67 56 -2 4 4 8 12 8 8 0 15 4 15 9 0 5 16
16 35 25 38 19 62 14 210 -38 152 -54 231 -69 334 -63 57 4 84 2 66 -2 -26 -7
-22 -9 26 -10 109 -2 300 63 395 136 38 28 39 41 2 23 -14 -6 -9 0 12 17 73
58 138 125 150 153 7 17 16 30 21 30 5 0 9 4 9 10 0 5 -7 6 -17 3 -18 -7 -18
-8 22 57 26 42 39 87 25 92 -6 2 -4 19 5 43 16 46 20 99 6 90 -6 -3 -9 17 -8
47 1 38 -2 52 -10 50 -9 -1 -13 12 -13 43 0 30 -5 47 -14 51 -8 3 -17 21 -20
39 -4 19 -13 38 -20 42 -7 5 -21 23 -30 41 -9 17 -20 32 -25 32 -5 0 -19 15
-32 34 -13 19 -27 32 -32 29 -4 -2 -5 6 -3 19 3 12 -1 37 -8 53 -12 26 -15 27
-21 12z"/>
<path d="M1921 2700 c0 -19 4 -44 8 -55 7 -16 9 -13 15 19 6 29 4 43 -8 55
-15 14 -16 12 -15 -19z"/>
<path d="M4010 2498 c0 -19 34 -25 45 -8 3 6 1 10 -5 10 -6 0 -9 4 -5 9 3 6
-4 9 -15 8 -12 -1 -20 -8 -20 -19z"/>
<path d="M1801 2330 c15 -45 24 -54 15 -15 -4 17 -12 34 -17 40 -5 5 -4 -6 2
-25z"/>
<path d="M3983 2343 c0 -10 5 -21 11 -25 15 -10 36 10 29 28 -7 20 -40 18 -40
-3z"/>
<path d="M2640 2286 c0 -9 5 -16 10 -16 6 0 10 4 10 9 0 6 -4 13 -10 16 -5 3
-10 -1 -10 -9z"/>
<path d="M3938 2193 c-5 -26 22 -44 39 -28 7 8 10 21 7 29 -8 22 -42 20 -46
-1z"/>
<path d="M3885 2050 c-8 -12 3 -50 14 -50 16 0 31 28 25 44 -7 18 -29 21 -39
6z"/>
<path d="M3807 1901 c-6 -25 18 -42 44 -33 14 6 18 11 11 16 -6 4 -9 12 -6 19
2 7 -5 13 -20 13 -15 1 -26 -5 -29 -15z"/>
<path d="M1188 1763 c44 -56 151 -162 213 -213 30 -24 2 6 -62 67 -63 61 -126
127 -140 147 -13 20 -28 36 -32 36 -5 0 5 -17 21 -37z"/>
<path d="M3730 1774 c0 -8 -5 -14 -10 -14 -6 0 -6 -7 1 -19 16 -25 49 -16 49
14 0 14 -7 25 -20 28 -13 3 -20 0 -20 -9z"/>
<path d="M761 1720 c14 -31 19 -36 19 -24 0 6 -7 19 -16 30 -14 18 -14 18 -3
-6z"/>
<path d="M790 1683 c0 -20 177 -253 193 -253 4 0 7 -4 7 -9 0 -24 286 -271
314 -271 8 0 16 -7 20 -15 3 -8 15 -15 26 -15 14 0 19 -4 14 -12 -4 -7 -3 -8
5 -4 12 8 6 26 -10 26 -12 0 -105 67 -175 126 -28 24 -54 40 -58 37 -3 -3 -6
1 -6 10 0 9 -3 17 -7 17 -13 0 -83 69 -153 150 -36 41 -68 77 -71 80 -3 3 -27
36 -52 74 -26 37 -47 64 -47 59z"/>
<path d="M3631 1646 c-6 -7 -8 -21 -5 -32 8 -30 52 -21 52 11 0 26 -31 40 -47
21z"/>
<path d="M1485 1486 c17 -14 34 -26 39 -26 11 0 11 0 -34 29 l-35 23 30 -26z"/>
<path d="M1486 1294 c-8 -22 -7 -36 2 -30 5 3 8 -15 8 -39 -1 -36 2 -45 16
-45 24 0 27 20 9 68 -14 38 -14 44 -1 52 12 8 11 10 -6 10 -12 0 -25 -7 -28
-16z"/>
<path d="M3145 1248 c4 -12 16 -32 26 -44 11 -11 19 -29 19 -39 0 -18 1 -18
16 -3 21 21 11 48 -16 48 -17 0 -20 5 -18 27 2 20 -2 28 -15 31 -16 3 -18 0
-12 -20z"/>
<path d="M1600 1250 c0 -6 -9 -29 -20 -52 -19 -40 -19 -64 2 -52 14 9 49 94
42 105 -7 12 -24 11 -24 -1z"/>
<path d="M3090 1235 c0 -25 43 -105 57 -105 19 0 16 14 -12 70 -25 49 -45 65
-45 35z"/>
<path d="M1718 1199 c-35 -13 -58 -74 -36 -96 13 -13 16 -10 21 23 3 20 16 47
28 60 13 13 21 24 18 23 -2 0 -16 -5 -31 -10z"/>
<path d="M2973 1192 c-23 -15 22 -112 52 -112 9 0 7 14 -9 48 -13 26 -25 52
-27 59 -2 7 -9 9 -16 5z"/>
<path d="M2853 1148 c2 -7 10 -36 17 -64 10 -40 17 -50 30 -47 15 4 15 9 -3
64 -12 38 -24 59 -34 59 -8 0 -13 -6 -10 -12z"/>
<path d="M1862 1104 c-7 -25 -9 -50 -6 -56 4 -7 2 -8 -4 -4 -7 4 -12 2 -12 -4
0 -6 7 -10 16 -8 10 2 23 25 34 61 17 53 17 57 1 57 -12 0 -21 -14 -29 -46z"/>
<path d="M1932 1125 c2 -11 -3 -26 -12 -33 -12 -10 -10 -10 13 -1 31 14 33 21
11 40 -14 12 -16 11 -12 -6z"/>
<path d="M2737 1112 c-33 -36 -15 -87 35 -105 14 -5 14 -1 -4 29 -13 22 -19
45 -16 64 5 35 6 35 -15 12z"/>
<path d="M2002 1103 c-17 -33 -21 -101 -6 -107 9 -3 15 6 19 32 3 20 9 49 14
65 7 20 6 27 -5 27 -7 0 -17 -8 -22 -17z"/>
<path d="M1387 1103 c-4 -6 0 -13 8 -17 8 -3 17 0 21 6 4 6 3 8 -4 4 -5 -3
-12 -1 -14 6 -3 8 -6 9 -11 1z"/>
<path d="M2068 1050 c-4 -52 4 -81 18 -67 3 3 9 33 13 66 6 53 5 59 -10 58
-14 -1 -18 -13 -21 -57z"/>
<path d="M2190 1058 c0 -24 -3 -54 -7 -67 -5 -19 -2 -22 13 -19 16 3 20 15 24
66 4 54 3 62 -12 62 -14 0 -18 -9 -18 -42z"/>
<path d="M2540 1088 c1 -28 75 -92 93 -81 5 3 7 1 3 -5 -3 -6 -2 -13 4 -17 5
-3 10 2 10 13 0 25 -45 66 -62 56 -7 -4 -10 -3 -5 1 7 9 -20 45 -35 45 -4 0
-8 -6 -8 -12z"/>
<path d="M2310 1026 c0 -53 3 -66 15 -66 13 0 15 11 13 62 -2 38 -8 63 -15 66
-10 3 -13 -14 -13 -62z"/>
<path d="M2397 1072 c-22 -24 -22 -75 1 -95 16 -15 17 -12 17 49 0 35 0 64 -1
64 0 0 -8 -8 -17 -18z"/>
<path d="M2475 1025 c0 -60 1 -63 18 -48 22 21 22 75 -1 96 -16 15 -17 12 -17
-48z"/>
<path d="M1420 1075 c0 -1 10 -10 23 -18 17 -11 28 -12 38 -5 11 8 10 9 -3 4
-10 -3 -18 -2 -18 3 0 5 -9 11 -20 14 -11 3 -20 4 -20 2z"/>
<path d="M2956 1063 c-6 -14 -5 -15 5 -6 7 7 10 15 7 18 -3 3 -9 -2 -12 -12z"/>
<path d="M1918 1045 c-4 -20 -2 -25 11 -23 18 4 22 39 5 45 -6 2 -14 -8 -16
-22z"/>
<path d="M1515 1031 c-6 -11 13 -26 22 -17 4 3 1 6 -6 6 -7 0 -9 5 -6 10 3 6
4 10 1 10 -3 0 -7 -4 -11 -9z"/>
<path d="M2136 983 c-6 -14 -5 -15 5 -6 7 7 10 15 7 18 -3 3 -9 -2 -12 -12z"/>
<path d="M2255 970 c-3 -5 -2 -10 4 -10 5 0 13 5 16 10 3 6 2 10 -4 10 -5 0
-13 -4 -16 -10z"/>
</g>
</svg>
